<?xml version="1.0" encoding="UTF-8"?>
<svg xmlns="http://www.w3.org/2000/svg" id="Layer_1" data-name="Layer 1" viewBox="0 0 24 24">
  <path d="M2.816,13.641c-1.095,.742-1.816,2.001-1.816,3.43,0,1.693,1.022,3.15,2.479,3.785-.191-.783-.675-3.104-.675-6.466,0-.222,.004-.475,.012-.748Z"/>
  <path d="M21.184,13.641c.008,.273,.012,.525,.012,.749,0,3.357-.478,5.677-.667,6.462,1.453-.637,2.47-2.094,2.47-3.79,0-1.422-.721-2.679-1.816-3.42Z"/>
  <path d="M15.47,5.984v-1.227c0-1.917-1.555-3.477-3.474-3.477s-3.466,1.56-3.466,3.477v1.229c-2.021,1.174-3.446,3.339-3.62,5.866-.068,.978-.107,1.903-.107,2.537,0,1.548,.11,2.859,.242,3.871,1.257-2.59,3.902-4.379,6.955-4.379s5.703,1.792,6.959,4.387c.129-1.01,.238-2.322,.238-3.88,0-.637-.038-1.559-.105-2.529-.172-2.532-1.598-4.701-3.622-5.876Zm-4.939-1.227c0-.814,.657-1.477,1.474-1.477,.809,0,1.466,.663,1.466,1.477v.448c-.475-.104-.966-.159-1.469-.159s-.995,.055-1.471,.16v-.448Zm3.018,6.658h-3.096c-.553,0-1-.448-1-1s.447-1,1-1h3.096c.553,0,1,.448,1,1s-.447,1-1,1Z"/>
  <path d="M12,15.882c-3.083,0-5.605,2.465-5.73,5.544,.807,.503,2.576,1.293,5.735,1.293s4.916-.772,5.726-1.281c-.118-3.084-2.644-5.556-5.731-5.556Z"/>
</svg>
