<svg id="Layer_1" viewBox="0 0 24 24" xmlns="http://www.w3.org/2000/svg" data-name="Layer 1"><path d="m22.919 16.515c-.269-.784-1.12-1.201-1.904-.934-.027.009-2.737.919-7.015.919-3.11 0-6.228-.497-7.736-.777-.28-1.437-.764-4.329-.764-7.223 0-2.023.177-4.161.474-5.72.083-.439-.033-.893-.318-1.237s-.708-.543-1.155-.543h-2.001c-.828 0-1.5.671-1.5 1.5s.672 1.5 1.5 1.5h.257c-.166 1.399-.257 2.963-.257 4.5 0 4.404.998 8.667 1.04 8.846.133.559.572.993 1.132 1.118.066.015.655.145 1.592.309-.169.375-.264.79-.264 1.227 0 1.654 1.346 3 3 3s3-1.346 3-3c0-.191-.019-.378-.053-.56.672.038 1.361.06 2.053.06.725 0 1.411-.024 2.054-.065-.035.183-.054.372-.054.565 0 1.654 1.346 3 3 3s3-1.346 3-3c0-.532-.14-1.032-.384-1.466.22-.064.346-.106.37-.114.784-.268 1.202-1.121.934-1.905z"/><path d="m8.47 14.458c.038.009.41.092 1.03.19v-10.297c-.624.099-.996.183-1.033.192-.327.075-.595.309-.713.623-.03.082-.754 2.034-.754 4.334s.724 4.251.754 4.333c.118.315.387.55.716.624z"/><path d="m20.246 13.834c.03-.082.754-2.034.754-4.334s-.724-4.251-.754-4.333c-.118-.315-.387-.55-.716-.624-.038-.009-.41-.092-1.03-.19v10.296c.624-.099.996-.183 1.033-.192.327-.075.595-.309.713-.623z"/><path d="m16.5 14.892v-11.392c0-1.378-1.121-2.5-2.5-2.5s-2.5 1.122-2.5 2.5v11.391c.742.064 1.588.109 2.5.109s1.76-.045 2.5-.108zm-3-10.892v-.5c0-.276.225-.5.5-.5s.5.224.5.5v.5s0 .003 0 .005c-.164-.003-.331-.005-.5-.005s-.336.002-.5.004c0-.001 0-.003 0-.004z"/></svg>