<?xml version="1.0" encoding="UTF-8"?>
<svg xmlns="http://www.w3.org/2000/svg" id="Layer_1" data-name="Layer 1" viewBox="0 0 24 24">
  <path d="M23,16.479c0-2.162-.728-3.714-2.171-4.647-.18-6.852-2.998-10.051-8.829-10.051S3.35,4.98,3.171,11.832c-1.443,.933-2.171,2.485-2.171,4.647,0,3.779,2.223,5.696,6.606,5.696,.645,0,1.218-.412,1.422-1.023,1.009-3.014,1.009-6.332,0-9.346-.205-.611-.777-1.023-1.422-1.023-.488,0-.949,.024-1.384,.071,.431-5.571,3.075-6.073,5.778-6.073s5.347,.502,5.778,6.073c-.434-.047-.896-.071-1.384-.071-.645,0-1.218,.412-1.422,1.023-.797,2.38-.964,4.952-.501,7.414-.752-.003-1.477-.032-2.169-.087-.829-.061-1.549,.55-1.614,1.376-.066,.826,.55,1.549,1.376,1.614,.812,.064,1.663,.098,2.543,.098,.595,0,1.203-.015,1.822-.045,4.361-.01,6.572-1.926,6.572-5.696Z"/>
</svg>
