<?xml version="1.0" encoding="UTF-8"?>
<svg xmlns="http://www.w3.org/2000/svg" id="Layer_1" data-name="Layer 1" viewBox="0 0 24 24">
  <path d="M20,2.5c0,1.381-1.119,2.5-2.5,2.5s-2.5-1.119-2.5-2.5,1.119-2.5,2.5-2.5,2.5,1.119,2.5,2.5Zm1.079,15.095l2.831,5.348-1.768,.936-2.594-4.9-6.161-4.113,.782-5.236-3.262,4.062-1.56-1.252,3.973-4.948c.764-.947,1.899-1.49,3.115-1.49,0,0,1.551-.076,2.12,.577s.587,1.418,.469,2.277l-.161,1.125,5.093,2.909-.992,1.736-4.406-2.517-.498,3.472,3.019,2.015Zm-8.45,6.405h2.034l.901-5.365-1.799-1.2-1.136,6.565Zm-9.629-2c0,1.105,.895,2,2,2s2-.895,2-2-.895-2-2-2-2,.895-2,2Zm2-4c1.078,0,2.054,.433,2.774,1.129l2.75-3.565-3.115-2.415c-.595-.46-1.336-.66-2.08-.561-.746,.099-1.408,.483-1.853,1.071l-2.913,3.724c-.918,1.212-.688,2.956,.51,3.893,.342-1.861,1.969-3.277,3.927-3.277Z"/>
</svg>
