<svg width="21" height="22" viewBox="0 0 21 22" fill="none" xmlns="http://www.w3.org/2000/svg">
<path d="M9.11168 17.7656C9.10922 17.7656 9.10635 17.7656 9.10389 17.7656C9.00217 17.7635 8.9062 17.7201 8.83729 17.6454L1.80475 9.99846C1.68416 9.86721 1.67309 9.66951 1.7785 9.52555C1.88391 9.38199 2.07586 9.33277 2.23746 9.40824L8.67405 12.4221C8.72819 12.4475 8.79217 12.4352 8.8336 12.3921L18.6519 2.13043C18.7848 1.99139 19.0022 1.97621 19.1531 2.09598C19.3041 2.21574 19.3389 2.43066 19.2335 2.59186L9.46688 17.5535C9.45293 17.5753 9.43653 17.595 9.41848 17.6134L9.37541 17.6565C9.30528 17.7262 9.21012 17.7656 9.11168 17.7656Z" fill="#34D674"/>
</svg>
