<svg xmlns="http://www.w3.org/2000/svg" fill="none" viewBox="0 0 867 326"><g clip-path="url(#a)"><path fill="#FFB6B6" d="m235.069 78.213 33.784-14.217 14.49 29.705-35.501 14.49-12.773-29.978Z"/><g opacity=".1"><path fill="#000" d="m235.069 78.213 33.784-14.217 14.49 29.705-35.501 14.49-12.773-29.978Z"/><path fill="url(#b)" d="m235.069 78.213 33.784-14.217 14.49 29.705-35.501 14.49-12.773-29.978Z"/></g><path fill="url(#c)" d="M239.872 66.894 265 102.5s-1.943 58.979-25.128 65.5c-23.185 6.521-78.973 55.391-78.973 55.391L111.5 187s22.99-21.456 32-36c24.146-38.979 31.506-65.496 67-79.5 13.608-5.369 29.372-4.606 29.372-4.606Z"/><path fill="#2F2E41" d="M194.843 317.216h-77.582l-4.905-6.557-20.026-26.771-4.608-6.158s-17.388-31.879-13.766-60.86c3.623-28.981 41.298-35.502 41.298-35.502h1.551l46.123 40.53-2.753 37.719 14.606 24.271 20.062 33.328Z"/><path fill="#2F2E41" d="M133.15 317.216h-20.794v-30.792l20.794 30.792Z"/><path fill="url(#d)" d="m704.745 101.84 7.755 48.376-49 .632v-42.059l41.245-6.949Z"/><path fill="#F2F2F2" d="m821.461 270.47-2.586 13.418-6.419 33.328H683.498c1.007-7.47 2.383-18.221 3.854-29.828.145-1.16.297-2.326.442-3.5 3.688-29.176 7.724-62.193 7.724-62.193l16.953 2.058 32.894 3.985 13.403 1.623 35.893 4.354c17.896 2.166 30.206 19.048 26.8 36.755Z"/><path fill="#2F2E41" d="M764.144 317.216h-69.945c1.065-1.253 1.666-1.978 1.666-1.978l20.968-3.463 43.203-7.129s1.971 5.093 4.108 12.57Zm-96.223 0H562.292a294.971 294.971 0 0 1 3.253-6.267c1.493-2.789 3.087-5.274 4.775-7.484a45.027 45.027 0 0 1 3.478-4.05c3.514-3.616 7.339-6.246 11.368-8.05 14.381-6.47 31.328-2.506 45.76 3.942 5.42 2.42 10.484 5.187 14.926 7.883 7.824 4.752 13.729 9.288 16.243 11.302.87.688 1.333 1.087 1.333 1.087l4.493 1.637Z"/><path fill="#FFB6B6" d="M584.122 317.216h-14.983l3.949-4.586 2.231-2.594.957.776 7.846 6.404Z"/><path fill="#F59E0B" d="M758.768 229.361c-1.224 10.042-2.398 17.178-2.398 17.178l-12.838 21.185-9.796 16.164-16.903 27.887-2.478 4.094-1.768 1.347h-53.028l2.536-2.724 25.257-27.104 3.268-3.5 5.296-5.687 16.555-54.448 19.512-64.171s7.904-2.753 15.621-.145c4.057 1.369 8.071 4.224 10.831 9.759 5.282 10.564 2.71 40.776.333 60.165Z"/><path fill="url(#e)" d="M758.768 229.361c-1.224 10.042-2.398 17.178-2.398 17.178l-12.838 21.185-9.796 16.164-16.903 27.887-2.478 4.094-1.768 1.347h-53.028l2.536-2.724 25.257-27.104 3.268-3.5 5.296-5.687 16.555-54.448 19.512-64.171s7.904-2.753 15.621-.145c4.057 1.369 8.071 4.224 10.831 9.759 5.282 10.564 2.71 40.776.333 60.165Z"/><path fill="#F59E0B" d="M769.259 317.216H640.236l5.615-14.026 7.717-19.302 3.876-9.694-3.203-13.628s-1.579-1.116-3.985-3.123c-8.571-7.1-27.647-25.387-23.264-44.167 4.985-21.373 11.245-63.026 12.57-72.003l18.874-6.296.616-.152 2-.493h49.876l36.683 24.844-.008.261-2.238 68.301-.957 29.22s-1.152 4.216-.876 10.766c.181 4.492 1.029 10.078 3.376 16.164 2.485 6.47 6.666 13.498 13.527 20.359 5.18 5.181 7.694 9.542 8.824 12.969Z"/><path fill="url(#f)" d="M769.259 317.216H640.236l5.615-14.026 7.717-19.302 3.876-9.694-3.203-13.628s-1.579-1.116-3.985-3.123c-8.571-7.1-27.647-25.387-23.264-44.167 4.985-21.373 11.245-63.026 12.57-72.003l18.874-6.296.616-.152 2-.493h49.876l36.683 24.844-.008.261-2.238 68.301-.957 29.22s-1.152 4.216-.876 10.766c.181 4.492 1.029 10.078 3.376 16.164 2.485 6.47 6.666 13.498 13.527 20.359 5.18 5.181 7.694 9.542 8.824 12.969Z"/><path fill="#F59E0B" d="m665.486 227.607-15.23 29.836-13.497 26.445-5.833 11.419-2.296 4.506-19.686 17.403h-44.572l7.346-9.129 2.732-3.405 10.715-13.317 6.014-7.477 16.323-20.301 4.354-92.462c.722-15.336 12.407-27.733 27.615-29.837.033-.004.063-.009.092-.015 4.941-.992 12.795-1.282 18.873 4.594.211.195.413.405.616.623a21.577 21.577 0 0 1 2.869 3.832c.087.145.174.298.254.45.254.463.5.97.725 1.514 7.759 18.07 2.586 75.321 2.586 75.321Z"/><path fill="url(#g)" d="m665.486 227.607-15.23 29.836-13.497 26.445-5.833 11.419-2.296 4.506-19.686 17.403h-44.572l7.346-9.129 2.732-3.405 10.715-13.317 6.014-7.477 16.323-20.301 4.354-92.462c.722-15.336 12.407-27.733 27.615-29.837.033-.004.063-.009.092-.015 4.941-.992 12.795-1.282 18.873 4.594.211.195.413.405.616.623a21.577 21.577 0 0 1 2.869 3.832c.087.145.174.298.254.45.254.463.5.97.725 1.514 7.759 18.07 2.586 75.321 2.586 75.321Z"/><path fill="url(#h)" d="M678.776 123.371c19.455 0 35.227-15.771 35.227-35.227 0-19.455-15.772-35.227-35.227-35.227s-35.227 15.772-35.227 35.227c0 19.456 15.772 35.227 35.227 35.227Z"/><path fill="url(#i)" d="M693.383 101.994s-3.652-10.061-5.722-15.282c-2.071-5.22-.721-11.996-.721-11.996s-27.633-6.1-38.454-.054c-10.821 6.046-11.549-24.362-.566-32.638 0 0 2.941 5.111 1.799 6.58l-1.141 1.47s8.311-17.576 22.345-18.456c0 0 6.652 5.308 4.145 7.06-2.507 1.752 18.483-9.904 22.134.157 0 0 13.384 2.385 10.776 6.956l.22 3.155s12.129-1.26 11.265 7.336c0 0-4.08-.813-6.69.93-2.61 1.742 6.208 10.004 6.208 10.004s5.3 34.43-13.08 44.343c0 0 2.981-15.668-4.034-13.107-7.016 2.562-8.484 3.542-8.484 3.542Z"/><path fill="#E6E6E6" d="M845.641 325.716H21.164C9.494 325.716 0 316.222 0 304.552c0-11.67 9.494-21.164 21.164-21.164h824.477c11.67 0 21.164 9.494 21.164 21.164 0 11.67-9.494 21.164-21.164 21.164Z"/><path fill="url(#j)" d="m817.522 218.878-1.603 74.803c-.155 7.241-6.069 13.03-13.312 13.03H665.004c-7.071 0-12.909-5.528-13.295-12.589l-4.09-74.802c-.417-7.628 5.656-14.042 13.296-14.042H804.21c7.465 0 13.472 6.136 13.312 13.6Z"/><path fill="#FFB6B6" d="M296.385 96.27c18.182 0 32.922-14.74 32.922-32.922 0-18.182-14.74-32.922-32.922-32.922-18.183 0-32.922 14.74-32.922 32.922 0 18.182 14.739 32.922 32.922 32.922Z"/><path fill="url(#k)" d="M296.385 96.27c18.182 0 32.922-14.74 32.922-32.922 0-18.182-14.74-32.922-32.922-32.922-18.183 0-32.922 14.74-32.922 32.922 0 18.182 14.739 32.922 32.922 32.922Z"/><path fill="url(#l)" d="m241.321 149.489 3.623 39.124 24.633 99.26-21.281 7.459-35.956-108.168-4.966-43.471 33.947 5.796Z"/><path fill="#FFB6B6" d="M273.5 307.216c14.359 0 26-5.148 26-11.5 0-6.351-11.641-11.5-26-11.5s-26 5.149-26 11.5c0 6.352 11.641 11.5 26 11.5Z"/><path fill="url(#m)" d="M273.5 307.216c14.359 0 26-5.148 26-11.5 0-6.351-11.641-11.5-26-11.5s-26 5.149-26 11.5c0 6.352 11.641 11.5 26 11.5Z"/><path fill="#F59E0B" d="m190.242 155.471 14.853-79.159s41.298-5.796 42.747 7.97c1.449 13.766-1.036 81.042-1.036 81.042l-56.564-9.853Z"/><path fill="url(#n)" d="m190.242 155.471 14.853-79.159s41.298-5.796 42.747 7.97c1.449 13.766-1.036 81.042-1.036 81.042l-56.564-9.853Z"/><path fill="#2F2E41" d="M283.095 68.524s20.366-7.268 28.956-11.179c8.591-3.91 25.657 23.367 26.037 8.96.38-14.405-5.518-20.446-5.518-20.446s-1.472-31.516-33.223-27.575c0 0 6.984-15.768-15.941-18.206C260.482-2.36 224.817 53 228.011 61.272c3.194 8.273 7.023 15.113-2.039 23.959s-26.03 58.769-13.12 72.203c12.91 13.434 13.758 19.264 4.912 27.621-8.846 8.358-29.754 26.531-7.147 29.685 22.607 3.155-2.068.799 14.785-14.026 16.854-14.825 41.448-14.219 32.265-38.004-9.183-23.786 6.771-57.87 4.775-63.04-1.996-5.171 4.472-38.005 4.472-38.005s15.055-2.212 16.181 6.86Z"/><path fill="url(#o)" d="M283.095 68.524s20.366-7.268 28.956-11.179c8.591-3.91 25.657 23.367 26.037 8.96.38-14.405-5.518-20.446-5.518-20.446s-1.472-31.516-33.223-27.575c0 0 6.984-15.768-15.941-18.206C260.482-2.36 224.817 53 228.011 61.272c3.194 8.273 7.023 15.113-2.039 23.959s-26.03 58.769-13.12 72.203c12.91 13.434 13.758 19.264 4.912 27.621-8.846 8.358-29.754 26.531-7.147 29.685 22.607 3.155-2.068.799 14.785-14.026 16.854-14.825 41.448-14.219 32.265-38.004-9.183-23.786 6.771-57.87 4.775-63.04-1.996-5.171 4.472-38.005 4.472-38.005s15.055-2.212 16.181 6.86Z"/><path fill="url(#p)" d="m231.522 218.878-1.603 74.803c-.155 7.241-6.069 13.03-13.312 13.03H79.004c-7.071 0-12.91-5.528-13.295-12.589l-4.09-74.802c-.417-7.628 5.656-14.042 13.296-14.042H218.21c7.465 0 13.472 6.136 13.312 13.6Z"/><path fill="#F49B51" d="M538.737 218.989c-14.559 58.661-73.708 94.361-132.115 79.733-58.382-14.625-93.924-74.042-79.357-132.699 14.553-58.668 73.702-94.371 132.092-79.746 58.403 14.625 93.94 74.048 79.38 132.712Z"/><path fill="#FCC659" d="M453.159 87.207c-58.921-10.61-115.3 28.588-125.933 87.56-10.629 58.946 28.528 115.351 87.477 125.941 58.921 10.609 115.322-28.586 125.933-87.56 10.627-58.948-28.533-115.33-87.477-125.941Zm66.665 122.204c-4.137 22.944-16.961 42.913-36.12 56.222-19.137 13.311-42.302 18.386-65.259 14.253-47.342-8.527-78.933-53.996-70.386-101.381 4.136-22.944 16.939-42.916 36.098-56.227 18.468-12.84 40.705-18.007 62.859-14.641.808.123 1.589.265 2.395.41 46.588 8.366 77.875 52.5 70.792 99.007-.119.788-.237 1.575-.379 2.357Z"/><path fill="#FFAF6C" d="M520.715 207.594c-.121.787-.238 1.572-.381 2.356-4.137 22.944-16.962 42.915-36.121 56.224-19.138 13.314-42.302 18.386-65.259 14.253-47.344-8.528-78.935-53.996-70.387-101.384 4.136-22.944 16.939-42.918 36.098-56.227 18.468-12.84 40.705-18.007 62.861-14.64.808.123 1.589.265 2.395.41 46.586 8.365 77.875 52.5 70.794 99.008Z"/><path fill="#fff" d="M460.493 212.851a24.118 24.118 0 0 0-5.368-10.71 91.217 91.217 0 0 0-10.832-10.168l11.658-25.002a40.162 40.162 0 0 1 14.323 16.78l10.118-8.454a37.016 37.016 0 0 0-7.044-10.733 53.67 53.67 0 0 0-11.056-9.079l5.909-12.672-11.748-5.478-5.968 12.796a35.498 35.498 0 0 0-14.849-1.674 28.15 28.15 0 0 0-12.677 4.475 23.653 23.653 0 0 0-8.389 9.905 21.418 21.418 0 0 0-2.099 13.804 24.92 24.92 0 0 0 5.589 11.173 90.416 90.416 0 0 0 10.999 10.379l-11.172 23.959a42.899 42.899 0 0 1-17.618-18.734l-10.125 8.47a42.227 42.227 0 0 0 8.514 11.968 58.614 58.614 0 0 0 12.939 9.672l-5.858 12.564 11.748 5.478 5.968-12.797a33.537 33.537 0 0 0 21.176.133 23.356 23.356 0 0 0 13.837-12.69 20.714 20.714 0 0 0 2.025-13.365Zm-25.096-28.249a24.878 24.878 0 0 1-5.868-7.853 9.14 9.14 0 0 1 .264-7.799 11.562 11.562 0 0 1 6.324-6.168 15.8 15.8 0 0 1 9.646-.411l-10.366 22.231Zm2.059 41.292a14.697 14.697 0 0 1-9.17.406l9.611-20.612a22.723 22.723 0 0 1 5.656 7.129 7.992 7.992 0 0 1-.149 6.943 11.69 11.69 0 0 1-5.948 6.134Z"/><path fill="#FFF2A7" d="M519.511 211.195a80.42 80.42 0 0 0 .39-2.383c3.888-25.104-3.203-50.645-19.448-70.077l1.848-1.571c16.693 19.965 23.974 46.212 19.98 72.005-.127.814-.253 1.633-.402 2.444l-2.368-.418Z"/><path fill="#FFF2A7" d="M500.193 138.948a86.08 86.08 0 0 0-50.484-29.201l.418-2.328c20.21 3.626 38.632 14.284 51.876 30l-1.81 1.529Zm-152.791 39.886c4.193-23.278 17.189-43.517 36.592-56.989l1.35 1.942c-18.884 13.112-31.534 32.81-35.614 55.465l-2.328-.418Zm137.485 88.31-1.351-1.942c9.408-6.533 17.276-14.663 23.38-24.165l1.99 1.281c-6.275 9.762-14.355 18.117-24.019 24.826Z"/></g><defs><linearGradient id="b" x1="254.5" x2="273.08" y1="103.5" y2="82.527" gradientUnits="userSpaceOnUse"><stop stop-color="#FEBBBA"/><stop offset="1" stop-color="#FF928E"/></linearGradient><linearGradient id="d" x1="672.366" x2="686.163" y1="161.583" y2="116.387" gradientUnits="userSpaceOnUse"><stop stop-color="#FEBBBA"/><stop offset="1" stop-color="#FF928E"/></linearGradient><linearGradient id="h" x1="707.692" x2="563.341" y1="72.441" y2="201.742" gradientUnits="userSpaceOnUse"><stop stop-color="#FEBBBA"/><stop offset="1" stop-color="#FF928E"/></linearGradient><linearGradient id="i" x1="679.855" x2="679.855" y1="31.618" y2="111.559" gradientUnits="userSpaceOnUse"><stop stop-color="#565384"/><stop offset="1" stop-color="#14131E"/></linearGradient><linearGradient id="j" x1="776" x2="733" y1="205" y2="320.5" gradientUnits="userSpaceOnUse"><stop stop-color="#716E9A"/><stop offset="1" stop-color="#3F3D56"/></linearGradient><linearGradient id="k" x1="327.966" x2="296.658" y1="67.335" y2="133.758" gradientUnits="userSpaceOnUse"><stop stop-color="#FEBBBA"/><stop offset="1" stop-color="#FF928E"/></linearGradient><linearGradient id="l" x1="257" x2="86" y1="178" y2="334" gradientUnits="userSpaceOnUse"><stop stop-color="#FFB6B6"/><stop offset="1" stop-color="#D79797"/></linearGradient><linearGradient id="m" x1="289.717" x2="180.768" y1="293.76" y2="307.66" gradientUnits="userSpaceOnUse"><stop stop-color="#FFB6B6"/><stop offset="1" stop-color="#D79797"/></linearGradient><linearGradient id="o" x1="227" x2="291" y1="175" y2="29" gradientUnits="userSpaceOnUse"><stop stop-color="#565384"/><stop offset="1" stop-color="#14131E"/></linearGradient><linearGradient id="p" x1="190" x2="118.5" y1="205" y2="307" gradientUnits="userSpaceOnUse"><stop stop-color="#716E9A"/><stop offset="1" stop-color="#3F3D56"/></linearGradient><radialGradient id="c" cx="0" cy="0" r="1" gradientTransform="matrix(-22.3082 125.212 -174.768 -33.3239 195.987 130.694)" gradientUnits="userSpaceOnUse"><stop stop-color="#FF955B"/><stop offset="1" stop-color="#FC6512"/></radialGradient><radialGradient id="e" cx="0" cy="0" r="1" gradientTransform="matrix(-.45427 83.71637 -75.2053 -.40809 711 233.5)" gradientUnits="userSpaceOnUse"><stop stop-color="#FF955B"/><stop offset="1" stop-color="#FC6512"/></radialGradient><radialGradient id="f" cx="0" cy="0" r="1" gradientTransform="matrix(3.00001 97.49996 -77.06793 2.37133 698 219.5)" gradientUnits="userSpaceOnUse"><stop stop-color="#FF955B"/><stop offset="1" stop-color="#FC6512"/></radialGradient><radialGradient id="g" cx="0" cy="0" r="1" gradientTransform="rotate(74.003 173.104 528.57) scale(105.875 84.434)" gradientUnits="userSpaceOnUse"><stop stop-color="#FF955B"/><stop offset="1" stop-color="#FC6512"/></radialGradient><radialGradient id="n" cx="0" cy="0" r="1" gradientTransform="matrix(-6.50023 89.49996 -82.95909 -6.02518 213.5 113)" gradientUnits="userSpaceOnUse"><stop stop-color="#FF955B"/><stop offset="1" stop-color="#FC6512"/></radialGradient><clipPath id="a"><path fill="#fff" d="M0 0h866.805v325.716H0z"/></clipPath></defs></svg>